<?xml version="1.0" encoding="utf-8"?>
<!-- Generator: Adobe Illustrator 19.0.0, SVG Export Plug-In . SVG Version: 6.00 Build 0)  -->
<svg version="1.1" id="Layer_1" xmlns="http://www.w3.org/2000/svg" xmlns:xlink="http://www.w3.org/1999/xlink" x="0px" y="0px"
	 viewBox="-450 266.2 58.5 29.8" style="enable-background:new -450 266.2 58.5 29.8;" xml:space="preserve">
<style type="text/css">
	.st0{fill:#FFFFFF;}
</style>
<g>
	<path id="XMLID_1_" class="st0" d="M-417.1,268.5h15v19.9c0,0-4.4,12.2-17.3,2.1l3.2-4.5c0,0,6.1,4.2,8.1,0.9v-13.4h-9
		L-417.1,268.5L-417.1,268.5z"/>
	<g id="Studio_x5F_Zot_x5F_70">
		<path id="XMLID_8_" class="st0" d="M-428.4,268.8c-0.3,0.8-1,1.2-1.4,1.8c-0.5,0.5-1,1.1-1.5,1.7c-2.5,2.9-5,5.7-7.5,8.5
			c-0.4,0.6-1.1,1-1.4,1.8c0.7,0.2,1.7,0.1,2.6,0.1s1.9-0.1,2.6,0.1c-0.1,0.4-0.5,0.7-0.8,1s-0.6,0.6-0.9,0.9
			c-1.8,1.8-3.6,3.7-5.6,5.4c-0.9-0.6-1.6-1.7-2.2-2.7c-0.6-1.1-1.1-2.2-1.4-3.5c-0.7-2.8-0.4-5.9,0.6-8.3c1.8-4.3,5.9-7.6,11.5-7.9
			C-431.7,267.6-429.7,268-428.4,268.8z"/>
		<path id="XMLID_5_" class="st0" d="M-423.7,271.9L-423.7,271.9c2.1,2,3.4,4.5,3.7,8.1c0.3,3.6-1,6.8-2.7,8.9c-1.6,2.1-4,3.9-7,4.7
			c-3.1,0.8-7.3,0.4-9.6-1.2c0.3-0.8,1.2-1.1,1.6-1.7c0.6-0.5,1.2-1.1,1.8-1.5c2.3-2.1,4.7-4.2,7.1-6.4c1.2-1.1,2.4-2,3.4-3.2
			c-0.3-0.3-0.8-0.2-1.2-0.2c-1.3,0-3-0.1-4.3-0.1c0-0.4,0.5-0.7,0.7-1c1.5-1.5,3-3,4.5-4.5C-425,273.1-424.4,272.4-423.7,271.9z"/>
	</g>
	<circle id="XMLID_2_" class="st0" cx="-396.2" cy="291.4" r="2.6"/>
</g>
</svg>
